<?xml version="1.0" encoding="utf-8"?>
<!-- Generator: Adobe Illustrator 24.3.0, SVG Export Plug-In . SVG Version: 6.00 Build 0)  -->
<svg version="1.1" id="Layer_1" xmlns="http://www.w3.org/2000/svg" xmlns:xlink="http://www.w3.org/1999/xlink" x="0px" y="0px"
	 viewBox="0 0 612 792" style="enable-background:new 0 0 612 792;" xml:space="preserve">
<style type="text/css">
	.st0{fill:#95ADB4;}
	.st1{fill:#A73D41;}
	.st2{fill:#B74D46;}
	.st3{fill:#C55C5D;}
	.st4{fill:#B74D4D;}
	.st5{fill:#BA4B48;}
	.st6{fill:#D5EAF6;}
	.st7{fill:#C1D8EC;}
</style>
<rect x="140.95" y="266.05" class="st0" width="201.19" height="45.67"/>
<rect x="161.19" y="311.71" class="st0" width="161.9" height="463.02"/>
<rect x="161.19" y="311.71" class="st1" width="50.32" height="19.14"/>
<rect x="217.27" y="311.71" class="st2" width="56.6" height="19.14"/>
<rect x="278.88" y="311.71" class="st3" width="44.22" height="19.14"/>
<rect x="186.35" y="335.4" class="st1" width="56.6" height="19.14"/>
<rect x="248.2" y="335.4" class="st2" width="56.6" height="19.14"/>
<rect x="309.81" y="335.4" class="st1" width="13.29" height="19.14"/>
<rect x="161.19" y="335.4" class="st4" width="20.14" height="19.14"/>
<rect x="161.19" y="359.71" class="st1" width="50.32" height="19.14"/>
<rect x="217.27" y="359.71" class="st3" width="56.6" height="19.14"/>
<rect x="278.88" y="359.71" class="st2" width="44.22" height="19.14"/>
<rect x="186.35" y="384.4" class="st5" width="56.6" height="19.14"/>
<rect x="248.2" y="384.4" class="st1" width="56.6" height="19.14"/>
<rect x="309.81" y="384.4" class="st2" width="13.29" height="19.14"/>
<rect x="161.19" y="384.4" class="st4" width="20.14" height="19.14"/>
<rect x="161.19" y="409.71" class="st1" width="50.32" height="19.14"/>
<rect x="217.27" y="409.71" class="st5" width="56.6" height="19.14"/>
<rect x="278.88" y="409.71" class="st3" width="44.22" height="19.14"/>
<rect x="186.35" y="434.4" class="st1" width="56.6" height="19.14"/>
<rect x="248.2" y="434.4" class="st5" width="56.6" height="19.14"/>
<rect x="309.81" y="434.4" class="st1" width="13.29" height="19.14"/>
<rect x="161.19" y="434.4" class="st3" width="20.14" height="19.14"/>
<rect x="161.19" y="459.71" class="st1" width="50.32" height="19.14"/>
<rect x="217.27" y="459.71" class="st3" width="56.6" height="19.14"/>
<rect x="278.88" y="459.71" class="st2" width="44.22" height="19.14"/>
<rect x="186.35" y="483.4" class="st5" width="56.6" height="19.14"/>
<rect x="248.2" y="483.4" class="st1" width="56.6" height="19.14"/>
<rect x="309.81" y="483.4" class="st2" width="13.29" height="19.14"/>
<rect x="161.19" y="483.4" class="st4" width="20.14" height="19.14"/>
<rect x="161.19" y="507.71" class="st1" width="50.32" height="19.14"/>
<rect x="217.27" y="507.71" class="st5" width="56.6" height="19.14"/>
<rect x="278.88" y="507.71" class="st3" width="44.22" height="19.14"/>
<rect x="186.35" y="532.4" class="st1" width="56.6" height="19.14"/>
<rect x="248.2" y="532.4" class="st5" width="56.6" height="19.14"/>
<rect x="309.81" y="532.4" class="st1" width="13.29" height="19.14"/>
<rect x="161.19" y="532.4" class="st4" width="20.14" height="19.14"/>
<rect x="161.19" y="557.71" class="st1" width="50.32" height="19.14"/>
<rect x="217.27" y="557.71" class="st3" width="56.6" height="19.14"/>
<rect x="278.88" y="557.71" class="st2" width="44.22" height="19.14"/>
<rect x="186.35" y="582.4" class="st5" width="56.6" height="19.14"/>
<rect x="248.2" y="582.4" class="st1" width="56.6" height="19.14"/>
<rect x="309.81" y="582.4" class="st2" width="13.29" height="19.14"/>
<rect x="161.19" y="582.4" class="st3" width="20.14" height="19.14"/>
<rect x="161.19" y="607.71" class="st1" width="50.32" height="19.14"/>
<rect x="217.27" y="607.71" class="st5" width="56.6" height="19.14"/>
<rect x="278.88" y="607.71" class="st3" width="44.22" height="19.14"/>
<rect x="186.35" y="632.4" class="st1" width="56.6" height="19.14"/>
<rect x="248.2" y="632.4" class="st5" width="56.6" height="19.14"/>
<rect x="309.81" y="632.4" class="st1" width="13.29" height="19.14"/>
<rect x="161.19" y="632.4" class="st4" width="20.14" height="19.14"/>
<rect x="161.19" y="657.71" class="st1" width="50.32" height="19.14"/>
<rect x="217.27" y="657.71" class="st3" width="56.6" height="19.14"/>
<rect x="278.88" y="657.71" class="st2" width="44.22" height="19.14"/>
<rect x="186.35" y="681.4" class="st5" width="56.6" height="19.14"/>
<rect x="248.2" y="681.4" class="st1" width="56.6" height="19.14"/>
<rect x="309.81" y="681.4" class="st2" width="13.29" height="19.14"/>
<rect x="161.19" y="681.4" class="st4" width="20.14" height="19.14"/>
<rect x="161.19" y="705.71" class="st1" width="50.32" height="19.14"/>
<rect x="217.27" y="705.71" class="st5" width="56.6" height="19.14"/>
<rect x="278.88" y="705.71" class="st3" width="44.22" height="19.14"/>
<rect x="186.35" y="730.4" class="st1" width="56.6" height="19.14"/>
<rect x="248.2" y="730.4" class="st5" width="56.6" height="19.14"/>
<rect x="309.81" y="730.4" class="st1" width="13.29" height="19.14"/>
<rect x="161.19" y="730.4" class="st3" width="20.14" height="19.14"/>
<rect x="161.19" y="755.71" class="st1" width="50.32" height="19.14"/>
<rect x="217.27" y="755.71" class="st3" width="56.6" height="19.14"/>
<rect x="278.88" y="755.71" class="st2" width="44.22" height="19.14"/>
<g>
	<path class="st6" d="M211.51,277.58c0,0,34.52,47.38,73.02,0c0,0,43.9,40.67,63.88-4.91c2-16.64-12.68-16.63-12.68-16.63H144.95
		c-10.39,1.16-11.09,14.32-10.79,20.84C140.82,293.42,159.51,313.04,211.51,277.58z"/>
	<path class="st7" d="M284.53,277.58c-38.5,47.38-73.02,0-73.02,0c-52,35.46-70.69,15.84-77.35-0.69c0.1,2.18,0.31,3.62,0.31,3.62
		c6.48,50.34,77.04,5.05,77.04,5.05c40.12,43.6,73.24-0.67,73.24-0.67c55.23,36.39,62.4-6.22,62.4-6.22
		c0.65-2.21,1.05-4.2,1.27-5.99C328.43,318.25,284.53,277.58,284.53,277.58z"/>
</g>
</svg>
