<?xml version="1.0" encoding="utf-8"?>
<!-- Generator: Adobe Illustrator 24.3.0, SVG Export Plug-In . SVG Version: 6.00 Build 0)  -->
<svg version="1.1" id="Layer_1" xmlns="http://www.w3.org/2000/svg" xmlns:xlink="http://www.w3.org/1999/xlink" x="0px" y="0px"
	 viewBox="0 0 612 792" style="enable-background:new 0 0 612 792;" xml:space="preserve">
<style type="text/css">
	.st0{fill:#FDEB01;}
	.st1{fill:#FED402;}
	.st2{fill:none;stroke:#FED402;stroke-width:4;stroke-miterlimit:10;}
</style>
<circle class="st0" cx="252.47" cy="306.57" r="85.71"/>
<circle class="st1" cx="252.47" cy="306.57" r="73.38"/>
<path class="st0" d="M188.3,306.57c0-37.89,26.28-63.82,64.18-63.82s62.61,25.93,62.61,63.82s-22.5,62.14-60.39,62.14
	S188.3,344.46,188.3,306.57z"/>
<rect x="212.47" y="283.67" class="st2" width="81.58" height="19.71"/>
<rect x="222.09" y="303.38" class="st2" width="64.62" height="48.58"/>
<path class="st2" d="M216.59,274.03c0,0,23.45,2.57,37.67,9.64v68.29"/>
<path class="st2" d="M251.26,279.67c0,0-19.5-9.83-15.83-18.28C235.42,261.39,241.35,252.56,251.26,279.67z"/>
<path class="st2" d="M253.96,280.67c0,0,19.5-9.83,15.83-18.28C269.8,262.39,263.87,253.56,253.96,280.67z"/>
<path class="st2" d="M292.26,274.03c0,0-23.45,2.57-37.67,9.64"/>
</svg>
