<?xml version="1.0" encoding="utf-8"?>
<!-- Generator: Adobe Illustrator 24.3.0, SVG Export Plug-In . SVG Version: 6.00 Build 0)  -->
<svg version="1.1" id="Layer_1" xmlns="http://www.w3.org/2000/svg" xmlns:xlink="http://www.w3.org/1999/xlink" x="0px" y="0px"
	 viewBox="0 0 612 792" style="enable-background:new 0 0 612 792;" xml:space="preserve">
<style type="text/css">
	.st0{fill:#FDEB01;}
	.st1{fill:#FED402;}
	.st2{fill:none;stroke:#FED402;stroke-width:4;stroke-miterlimit:10;}
</style>
<ellipse transform="matrix(0.7071 -0.7071 0.7071 0.7071 -131.908 308.0744)" class="st0" cx="305.9" cy="313.3" rx="252.8" ry="252.8"/>
<ellipse transform="matrix(0.7071 -0.7071 0.7071 0.7071 -131.908 308.0744)" class="st1" cx="305.9" cy="313.3" rx="216.4" ry="216.4"/>
<path class="st0" d="M116.7,313.3C116.7,201.5,194.2,125,306,125c111.8,0,184.7,76.5,184.7,188.2c0,111.8-66.4,183.3-178.1,183.3
	S116.7,425,116.7,313.3z"/>
<rect x="187.9" y="245.7" class="st2" width="240.6" height="58.1"/>
<rect x="216.3" y="303.9" class="st2" width="190.6" height="143.3"/>
<path class="st2" d="M200.1,217.3c0,0,69.2,7.6,111.1,28.4v201.4"/>
<path class="st2" d="M302.4,233.9c0,0-57.5-29-46.7-53.9C255.6,180,273.1,154,302.4,233.9z"/>
<path class="st2" d="M310.3,236.9c0,0,57.5-29,46.7-53.9C357,183,339.5,156.9,310.3,236.9z"/>
<path class="st2" d="M423.3,217.3c0,0-69.2,7.6-111.1,28.4"/>
</svg>
