<?xml version="1.0" encoding="utf-8"?>
<!-- Generator: Adobe Illustrator 24.3.0, SVG Export Plug-In . SVG Version: 6.00 Build 0)  -->
<svg version="1.1" id="Layer_1" xmlns="http://www.w3.org/2000/svg" xmlns:xlink="http://www.w3.org/1999/xlink" x="0px" y="0px"
	 viewBox="0 0 612 792" style="enable-background:new 0 0 612 792;" xml:space="preserve">
<style type="text/css">
	.st0{fill:#FFFFFF;stroke:#000000;stroke-miterlimit:10;}
	.st1{fill:#83C8EA;}
	.st2{fill:#BFDFF5;}
	.st3{fill:#299CCD;}
</style>
<path class="st0" d="M134.05,156.71"/>
<g>
	<path class="st1" d="M130.24,174.81l38.7,144.78c0,0,7.75,29.82,12.52,0l1.88-10.31l-35.39-134.47H130.24z"/>
	<polygon class="st2" points="183.34,309.28 205.91,174.81 147.96,174.81 	"/>
</g>
<g>
	<path class="st3" d="M205.91,174.81l61.53,391.55c0,0,7.61,37.21,14.38,0l6.03-34.08l-54.01-357.47H205.91z"/>
	<polygon class="st1" points="233.84,174.81 287.85,532.28 332.56,174.81 	"/>
</g>
<g>
	<path class="st1" d="M332.56,174.81l28.75,157.77c0,0,7.61,32.98,13.53,0l1.34-6.56l-24.95-151.2H332.56z"/>
	<polygon class="st2" points="351.24,174.81 376.19,326.01 401.22,174.81 	"/>
</g>
</svg>
