<?xml version="1.0" encoding="utf-8"?>
<!-- Generator: Adobe Illustrator 24.3.0, SVG Export Plug-In . SVG Version: 6.00 Build 0)  -->
<svg version="1.1" id="Layer_1" xmlns="http://www.w3.org/2000/svg" xmlns:xlink="http://www.w3.org/1999/xlink" x="0px" y="0px"
	 viewBox="0 0 612 792" style="enable-background:new 0 0 612 792;" xml:space="preserve">
<style type="text/css">
	.st0{fill:#FFFFFF;stroke:#000000;stroke-miterlimit:10;}
	.st1{fill:#83C8EA;}
	.st2{fill:#BFDFF5;}
	.st3{fill:#299CCD;}
</style>
<path class="st0" d="M28.9-13.9"/>
<g>
	<path class="st1" d="M21.8,19.8l71.9,269c0,0,14.4,55.4,23.3,0l3.5-19.2L54.7,19.8H21.8z"/>
	<polygon class="st2" points="120.4,269.6 162.4,19.8 54.7,19.8 	"/>
</g>
<g>
	<path class="st3" d="M162.4,19.8l114.3,727.4c0,0,14.1,69.1,26.7,0l11.2-63.3L214.3,19.8L162.4,19.8L162.4,19.8z"/>
	<polygon class="st1" points="214.3,19.8 314.6,683.9 397.7,19.8 	"/>
</g>
<g>
	<path class="st1" d="M397.7,19.8l53.4,293.1c0,0,14.1,61.3,25.1,0l2.5-12.2L432.4,19.8L397.7,19.8L397.7,19.8z"/>
	<polygon class="st2" points="432.4,19.8 478.7,300.7 525.2,19.8 	"/>
</g>
</svg>
