<?xml version="1.0" encoding="utf-8"?>
<!-- Generator: Adobe Illustrator 24.3.0, SVG Export Plug-In . SVG Version: 6.00 Build 0)  -->
<svg version="1.1" id="Layer_1" xmlns="http://www.w3.org/2000/svg" xmlns:xlink="http://www.w3.org/1999/xlink" x="0px" y="0px"
	 viewBox="0 0 1280 1024" style="enable-background:new 0 0 1280 1024;" xml:space="preserve">
<style type="text/css">
	.st0{fill:#075D10;stroke:#000000;stroke-miterlimit:10;}
	.st1{fill:#9B0003;stroke:#000000;stroke-miterlimit:10;}
	.st2{fill:#C32A2E;stroke:#020202;stroke-miterlimit:10;}
	.st3{fill:#F7BB8D;stroke:#050505;stroke-miterlimit:10;}
	.st4{fill:#FFFFFF;stroke:#FFFFFF;stroke-width:0.5;stroke-miterlimit:10;}
	.st5{fill:#020202;stroke:#000000;stroke-width:0.5;stroke-miterlimit:10;}
	.st6{fill:#FFFFFF;stroke:#000000;stroke-miterlimit:10;}
	.st7{fill:#C32A2E;stroke:#000000;stroke-width:0.25;stroke-miterlimit:10;}
	.st8{fill:#F9F9F9;stroke:#000000;stroke-width:0.75;stroke-miterlimit:10;}
	.st9{stroke:#000000;stroke-width:0.75;stroke-miterlimit:10;}
	.st10{fill:#F5D919;}
	.st11{fill:none;stroke:#000000;stroke-miterlimit:10;}
</style>
<g id="Bag">
	<path class="st0" d="M213.5,203.2l0.8,0.4c56.5,0.1,140.9-12.6,220.5-73.3l28.8-122c0,0-33.6,61.6-72.8,39.2c0,0-67.2-50.4-90.6,0
		c0,0-10.1,44.8-54,36.8c0,0-56.3-23.1-76.2,31.6c0,0-16.8,45.7-60.3,33.4l61.2,31.7l26,13.5"/>
	<path class="st0" d="M631.5,277c0,0-65.8-115.2-173.7-140.5c-81.2,80.6-196.4,88.9-254.5,87.3C162.4,300.4,43.8,590.4,362.8,596
		C362.9,596,782.6,545.7,631.5,277z"/>
	<g id="Bow_Tie">
		<path class="st1" d="M457.8,136.6c-7.6-1.8-15.4-3.1-23.5-4l0.6-2.3c-79.6,60.7-163.9,73.4-220.5,73.3l0.3,0.1
			c0,0-4.6,7.3-11.4,20C261.3,225.5,376.6,217.2,457.8,136.6z"/>
		<path class="st1" d="M313.9,190.2l-77.5-14.9c0,0-20.2-0.4,18.8,46.5l10.4,39.7c0,0,13.7,26.6,57.3-45.9c0,0,0.8,0.2,2.2,0.4
			C315.7,208,313.6,198.3,313.9,190.2z"/>
		<path class="st1" d="M344.8,179.5c-6.2-1-23.4-2.6-30.8,10.7h-0.1c-0.3,8.2,1.8,17.9,11.1,25.8c4.4,0.5,14.6,0.7,24.2-6.9
			C354.7,194.7,350.9,185.4,344.8,179.5z"/>
		<path class="st1" d="M402.9,180.1l-2.2-51.6c0,0-13.7-26.6-53.6,51.4c0,0-0.8-0.2-2.2-0.4c6.1,5.9,9.9,15.2,4.5,29.6
			c0.2-0.2,0.5-0.3,0.7-0.6l75.3,9.7C425.3,218.2,444.1,218.3,402.9,180.1z"/>
		<path class="st1" d="M29.1,178.9l7.2,24.8c0,0,61.6,20.5,167.4-5.5l-32.9-17C143.2,191.7,95.9,200,29.1,178.9z"/>
		<path class="st1" d="M196.9,194.6c-10.2,23.4-35.2,57.7-96.1,71.6l15.6,18.1c0,0,71.7-31.1,97.1-81.2l-9.7-5L196.9,194.6z"/>
	</g>
</g>
<ellipse id="Body" class="st2" cx="693.1" cy="590.4" rx="218.3" ry="235.1"/>
<path class="st3" d="M652.2,316c0,0,26.9-43.2,60.6-21.5c0,0,23-21.5,50.9,5.4c0,0,20.4,11.7,33.4-11.9
	c-4.5-29.7-10.7-57.7-16.6-80.7c-121.6-44.5-201.1,8.5-234.9,40c1.5,13,3.9,20.2,3.9,20.2l-11,31.6c13.5,7.8,28.8,17.7,39.2,27.7
	C577.7,326.8,614.1,348.4,652.2,316z"/>
<g id="Face">
	<path class="st4" d="M718.5,235.2c0,0,33.8-21.5,56.3,21.5c0,0-6.1,2.8-19.9-9.4c0,0-7.4-6.5-33.1-4
		C721.7,243.4,718.5,246,718.5,235.2z"/>
	<path class="st4" d="M677.1,237c0,0-33.8-21.5-56.3,21.5c0,0,6.1,2.8,19.9-9.4c0,0,7.4-6.5,33.1-4
		C673.9,245.1,677.1,247.7,677.1,237z"/>
	<path class="st5" d="M639.6,267.5c0,0,15.2-27,35.7,2.7C675.4,270.2,662.2,246,639.6,267.5z"/>
	<path class="st5" d="M753.4,263.6c0,0-15.2-27-35.7,2.7C717.6,266.3,730.9,242.1,753.4,263.6z"/>
</g>
<path id="Beard" class="st6" d="M853.6,380.7c7.8-23.1-22.5-37.7-22.5-37.7c22.5-32.3-33.8-54-33.8-54c-0.1-0.4-0.1-0.7-0.2-1.1
	c-13,23.6-33.4,11.9-33.4,11.9c-27.9-27-50.9-5.4-50.9-5.4C679,272.9,652.2,316,652.2,316c-38.1,32.3-74.5,10.8-74.5,10.8
	c-10.4-10-25.7-19.9-39.2-27.7l-0.3,0.7c-45.1,0-27.9,39.3-27.9,39.3c-39.1,7-17.2,47-17.2,47c-33.8,21.5,0,54,0,54
	c-45.1,43.2,11.2,64.7,11.2,64.7c-22.5,54,33.8,43.2,33.8,43.2C527,580.3,581,585.5,581,585.5c9,37.6,47.3,27.1,47.3,27.1
	c0,32.3,39.6,16.8,39.6,16.8c39.6,49.2,61.7-6,61.7-6c45.1,21.5,45.1-21.5,45.1-21.5c56.3,0,33.8-43.2,33.8-43.2
	c56.3,10.8,33.8-54,33.8-54c19.8-9.5,22.2-21,18.7-31"/>
<ellipse class="st7" cx="712.8" cy="299.9" rx="22.5" ry="16.2"/>
<g id="Santa">
	<g id="Arm">
		<path class="st8" d="M965.5,370.6l-3.8-15.2l-28.3,8.3c3.4,24.3,10.7,59.2,26.6,88.1l24.1-6.9l-8.6-34.4"/>
		<path class="st9" d="M1076.6,361c-8.3-39.2-75.7-11.2-75.7-11.2c0-28-16.8-22.4-16.8-22.4l-18.6,43.2l13,51.9l36.4-4.6
			C1073.6,407.6,1076.6,361,1076.6,361z"/>
		<path class="st2" d="M853.6,380.7c-1.7,5-5.2,10.5-11.2,16.2c0,0,33.8,21.5,0,54c0,0,14.2,10.2,18.7,22.9l98.9-21.9
			c-15.8-28.9-23.2-63.8-26.6-88.1L853.6,380.7z"/>
	</g>
	<g id="Hat">
		<path class="st6" d="M448.2,191.8c0,0.1,0,0.2,0,0.2c-22.5-10.8-22.5,10.8-22.5,10.8c-22.5,0-11.2,21.5-11.2,21.5
			c-11.2,21.5,11.2,32.3,11.2,32.3c0,21.5,33.8,10.8,33.8,10.8c33.8,0,22.5-35.9,22.5-35.9c9.7-3.1,2.7-14.2,0.6-17.2
			C472.7,212.5,457.3,207.1,448.2,191.8z"/>
		<path class="st6" d="M544.6,223.1c-0.2,9.5,0.2,17.6,1,24.2c33.8-31.6,113.3-84.5,234.9-40c-3.7-14.7-7.3-27.1-10.2-36.8
			C655.2,121.6,577.4,186,544.6,223.1z"/>
		<path class="st2" d="M763.5,148.9C696,8.7,579.8,29.7,579.8,29.7c-114.2,10-131.1,157.2-131.6,162.1c9.2,15.3,24.5,20.7,34.3,22.6
			c-0.3-0.5-0.6-0.8-0.6-0.8c22.5-10.8,56.3-54,56.3-54l11.2,21.5c-3.4,16-4.6,30-4.9,41.9c32.8-37.1,110.6-101.5,225.8-52.7
			C766.3,157,763.5,148.9,763.5,148.9z"/>
	</g>
</g>
<g id="Sled">
	<path class="st10" d="M818.1,959.8c-115.6,39.2-382.5,0-382.5,0c18.8-9.4,37.6-38.1,50.5-61.6h-39.6
		c-10.1,27.1-29.6,58.4-66.9,72.8c0,0,238.7,61.6,497.1,0c0,0-48.9-27.5-68.6-72.8h-44.7C781.1,929.8,818.1,959.8,818.1,959.8z"/>
	<path class="st1" d="M763.5,898.3h44.7h80.7c0,0,28-5.6,22.4-56c0,0-5.6-201.5,56-268.6c0,0,39.2-22.4-11.2-22.4
		c0,0-33.6-16.8-139.9,106.3c0,0-44.8,95.1-156.7,84c0,0-56-223.9-369.4-235.1l56,358.2c0,0-5.6,33.6,72.8,33.6h27.7h39.6"/>
	<path class="st11" d="M486.2,898.3H584h179.5"/>
	<path class="st10" d="M979.2,565.4c0,0,24.5-11.3,2.1-28.1c0,0-58-11.1-164.4,112c0,0-70.7,95-151.1,78.4c0,0-84-223.9-397.4-235.1
		l4.9,25.1c0,0,254.6-14,389,237.9c0,0,100.7,0,170.7-81.2C833,674.4,901.6,585,979.2,565.4z"/>
</g>
<path class="st11" d="M273.8,524"/>
<path class="st11" d="M262.1,859.1"/>
</svg>
